<svg width="512" height="512" viewBox="0 0 512 512" xmlns="http://www.w3.org/2000/svg">
  <defs>
    <linearGradient id="grad1" x1="0%" y1="0%" x2="100%" y2="100%">
      <stop offset="0%" style="stop-color:#667eea;stop-opacity:1" />
      <stop offset="100%" style="stop-color:#764ba2;stop-opacity:1" />
    </linearGradient>
  </defs>
  
  <!-- Background circle -->
  <circle cx="256" cy="256" r="240" fill="url(#grad1)"/>
  
  <!-- Document/file icon representing comparison -->
  <g transform="translate(256, 256)">
    <!-- Left document -->
    <rect x="-140" y="-100" width="80" height="120" rx="4" fill="white" opacity="0.9"/>
    <line x1="-120" y1="-80" x2="-80" y2="-80" stroke="#667eea" stroke-width="3" stroke-linecap="round"/>
    <line x1="-120" y1="-60" x2="-80" y2="-60" stroke="#667eea" stroke-width="3" stroke-linecap="round"/>
    <line x1="-120" y1="-40" x2="-60" y2="-40" stroke="#667eea" stroke-width="3" stroke-linecap="round"/>
    <line x1="-120" y1="-20" x2="-70" y2="-20" stroke="#667eea" stroke-width="3" stroke-linecap="round"/>
    
    <!-- Right document -->
    <rect x="60" y="-100" width="80" height="120" rx="4" fill="white" opacity="0.9"/>
    <line x1="80" y1="-80" x2="120" y2="-80" stroke="#764ba2" stroke-width="3" stroke-linecap="round"/>
    <line x1="80" y1="-60" x2="120" y2="-60" stroke="#764ba2" stroke-width="3" stroke-linecap="round"/>
    <line x1="80" y1="-40" x2="140" y2="-40" stroke="#764ba2" stroke-width="3" stroke-linecap="round"/>
    <line x1="80" y1="-20" x2="130" y2="-20" stroke="#764ba2" stroke-width="3" stroke-linecap="round"/>
    
    <!-- Comparison arrows in the middle -->
    <path d="M -40 -20 L -10 -20 L 0 -10 L 10 -20 L 40 -20" stroke="white" stroke-width="4" fill="none" stroke-linecap="round" stroke-linejoin="round"/>
    <path d="M -40 20 L -10 20 L 0 30 L 10 20 L 40 20" stroke="white" stroke-width="4" fill="none" stroke-linecap="round" stroke-linejoin="round"/>
    
    <!-- Highlight/diff indicator -->
    <circle cx="0" cy="0" r="8" fill="#ffd700" opacity="0.8"/>
  </g>
</svg>

